<svg xmlns="http://www.w3.org/2000/svg" aria-hidden="true" overflow="hidden" style="position:absolute;width:0;height:0">
  <defs>
    <symbol id="icon-why-us-icon-one" viewBox="0 0 32 32">
      <path d="M16.061 1.4c-1.05 0-2.031.478-2.867 1.261s-1.551 1.874-2.148 3.195c-.125.277-.244.564-.359.861a16.087 16.087 0 0 0-.927-.12 13.895 13.895 0 0 0-1.054-.066c-1.026-.024-1.964.08-2.786.329-1.096.332-2 .943-2.525 1.852s-.601 1.998-.341 3.113c.26 1.115.847 2.28 1.693 3.457.178.247.367.494.567.742-.196.242-.385.489-.566.741-.846 1.177-1.433 2.342-1.693 3.457s-.184 2.204.341 3.113c.525.909 1.429 1.52 2.525 1.852s2.398.407 3.841.263c.302-.03.611-.071.926-.12.112.291.231.579.359.863.596 1.321 1.312 2.412 2.148 3.195s1.817 1.261 2.867 1.261 2.031-.478 2.866-1.261 1.551-1.874 2.148-3.195c.128-.284.248-.572.359-.862.314.049.623.09.925.12 1.442.144 2.745.07 3.841-.263s2.001-.943 2.526-1.852c.525-.909.601-1.998.341-3.113s-.847-2.28-1.693-3.457c-.182-.252-.371-.5-.567-.741.196-.242.385-.489.567-.742.846-1.177 1.433-2.342 1.693-3.457s.184-2.204-.341-3.113c-.525-.909-1.429-1.52-2.525-1.852-.822-.249-1.76-.353-2.786-.329-.342.008-.694.03-1.055.066a16.8 16.8 0 0 0-.926.12c-.111-.29-.231-.577-.359-.861-.596-1.321-1.312-2.412-2.148-3.195s-1.817-1.261-2.866-1.261zm0 1.168c.7 0 1.387.308 2.068.946s1.331 1.603 1.882 2.823c.09.199.175.4.255.603a24.805 24.805 0 0 0-4.205 1.364 24.805 24.805 0 0 0-4.205-1.364c.083-.207.167-.409.255-.603.551-1.22 1.201-2.185 1.882-2.823s1.368-.946 2.068-.946zM8.337 7.696a12.707 12.707 0 0 1 1.309.062c.213.021.43.048.652.08a24.722 24.722 0 0 0-.921 4.324 24.81 24.81 0 0 0-3.284 2.96 13.294 13.294 0 0 1-.395-.524c-.781-1.087-1.292-2.133-1.504-3.041s-.135-1.657.215-2.264c.35-.607.96-1.047 1.853-1.318.586-.178 1.287-.273 2.077-.281zm15.448 0c.789.007 1.491.103 2.077.281.893.271 1.503.711 1.853 1.318s.427 1.355.215 2.264c-.212.909-.723 1.954-1.504 3.041-.128.177-.26.352-.395.524a24.81 24.81 0 0 0-3.284-2.96 24.72 24.72 0 0 0-.922-4.324c.221-.032.438-.059.651-.08a11.984 11.984 0 0 1 1.309-.062zm-3.12.353c.311.965.568 2.029.76 3.169a31.692 31.692 0 0 0-3.884-2.243 22.647 22.647 0 0 1 3.124-.926zm-9.208 0c.991.213 2.041.523 3.123.926a31.805 31.805 0 0 0-3.883 2.242 22.64 22.64 0 0 1 .76-3.168zm4.604 1.529c.95.419 1.915.906 2.877 1.462s1.867 1.147 2.705 1.761c.112 1.033.173 2.112.173 3.223s-.06 2.189-.172 3.222c-.838.614-1.743 1.205-2.705 1.761s-1.927 1.043-2.877 1.462c-.951-.419-1.916-.907-2.878-1.462s-1.866-1.147-2.704-1.76a29.94 29.94 0 0 1 0-6.446c.838-.614 1.743-1.205 2.705-1.761s1.926-1.043 2.877-1.462zm.079 1.757-3.344 2.064 3.344 2.064 3.344-2.064-3.344-2.064zm-6.923 2.446a31.648 31.648 0 0 0 0 4.484 22.675 22.675 0 0 1-2.364-2.242 22.675 22.675 0 0 1 2.364-2.242zm13.688 0c.89.736 1.683 1.49 2.363 2.242a22.76 22.76 0 0 1-2.363 2.242 31.611 31.611 0 0 0-.001-4.483zm-10.862.525v4.075l3.512 2.167v-4.075l-3.512-2.168zm8.191.002-3.511 2.167v4.073l3.511-2.167v-4.073zM6.091 16.923a24.74 24.74 0 0 0 3.284 2.96c.196 1.56.51 3.016.921 4.323-.221.032-.438.059-.65.08-1.331.133-2.493.053-3.386-.218s-1.502-.712-1.853-1.318c-.35-.607-.427-1.355-.215-2.264s.723-1.954 1.504-3.041c.128-.177.259-.352.395-.523zm19.939 0c.138.175.27.349.395.523.781 1.087 1.292 2.133 1.504 3.041s.135 1.657-.215 2.264c-.35.606-.96 1.047-1.853 1.318s-2.054.351-3.386.218a15.79 15.79 0 0 1-.65-.08c.412-1.308.725-2.764.921-4.324a24.794 24.794 0 0 0 3.283-2.959zm-4.605 3.905a22.655 22.655 0 0 1-.76 3.169 22.688 22.688 0 0 1-3.124-.926 32.057 32.057 0 0 0 3.884-2.242zm-10.727.001a32.168 32.168 0 0 0 3.883 2.242 22.635 22.635 0 0 1-3.123.926 22.503 22.503 0 0 1-.759-3.168zm5.398.053.043.026.042-.026h-.085zm-.035 2.861a24.725 24.725 0 0 0 4.206 1.364 14.57 14.57 0 0 1-.256.604c-.551 1.22-1.201 2.185-1.882 2.823s-1.368.946-2.068.946-1.387-.308-2.068-.946-1.331-1.603-1.882-2.823c-.09-.2-.175-.401-.256-.604a24.805 24.805 0 0 0 4.205-1.364z"/>
    </symbol>
    <symbol id="icon-why-us-icon-three" viewBox="0 0 39 32">
      <path d="M37.805 7.546c-.337-.306-.745-.502-1.178-.566s-.873.004-1.272.2l-8.417 4.107c-.037.022-.078.036-.12.041s-.085 0-.125-.014c-.04-.014-.078-.036-.11-.066s-.059-.066-.078-.108l-4.917-9.717c-.199-.402-.493-.737-.851-.97s-.766-.357-1.182-.357c-.416 0-.824.123-1.182.357s-.652.569-.851.97l-4.917 9.717c-.019.041-.046.078-.078.108s-.07.052-.11.066c-.04.014-.083.018-.125.014s-.083-.018-.12-.041L3.755 7.18c-.398-.198-.838-.27-1.271-.207s-.841.259-1.178.564c-.337.306-.589.709-.728 1.164s-.159.944-.057 1.412l4.25 19.855c.072.336.205.652.391.929s.422.51.692.684c.356.24.766.367 1.183.367.214-.002.426-.033.633-.092a40.736 40.736 0 0 1 23.75-.018c.303.096.621.124.934.081s.615-.155.888-.33.51-.409.698-.687c.188-.279.323-.596.396-.934l4.233-19.855c.106-.464.09-.951-.046-1.405s-.386-.857-.721-1.161zm-1.166 2.053-4.25 19.855a.424.424 0 0 1-.15.238.388.388 0 0 1-.267.037 42.554 42.554 0 0 0-24.833 0 .31.31 0 0 1-.263-.038c-.039-.026-.073-.06-.099-.101s-.045-.087-.055-.136L2.472 9.599a.417.417 0 0 1 .071-.313c.032-.044.072-.079.117-.104s.095-.039.146-.04l.133.037 8.433 4.125c.532.263 1.134.297 1.687.093s1.016-.63 1.296-1.193l4.917-9.717a.337.337 0 0 1 .117-.141.297.297 0 0 1 .334 0c.05.034.09.083.117.141l4.917 9.717c.28.563.743.989 1.296 1.193s1.156.171 1.687-.093l8.433-4.125c.057-.028.12-.037.182-.028s.12.039.168.083c.049.043.086.1.106.165s.024.135.011.202zm-10.75 13.934c-.028.271-.146.521-.33.703s-.422.284-.67.287h-.1a47.572 47.572 0 0 0-10.467 0c-.263.031-.526-.054-.732-.236s-.338-.447-.368-.736c-.023-.291.058-.581.226-.807s.41-.371.674-.403a46.798 46.798 0 0 1 10.867 0c.261.032.5.175.668.397s.251.507.232.795z"/>
    </symbol>
    <symbol id="icon-why-us-icon-two" viewBox="0 0 39 32">
      <path d="M11.984 10.581H-.169a.662.662 0 0 0-.675.648v3.887c0 .358.302.648.675.648h.675v14.899c0 .358.302.648.675.648h9.452c.373 0 .675-.29.675-.648V15.764h.675c.373 0 .675-.29.675-.648v-3.887a.662.662 0 0 0-.675-.648zM4.558 22.889v-1.296h4.051v-1.296H4.558v-1.296h5.401v8.421H4.558v-3.239h1.35v-1.296h-1.35zm5.401-5.183H3.883a.662.662 0 0 0-.675.648v9.717c0 .358.302.648.675.648h6.076v1.296H1.857V15.764h8.102v1.943zm1.35-3.239H.506v-2.591h10.803v2.591zm9.621-3.765V5.966a.67.67 0 0 0-.675-.667h-.675V1.964h1.35V.63h-7.427v1.334h4.726v3.335h-.675a.67.67 0 0 0-.675.667v4.736c-1.539.31-2.701 1.657-2.701 3.267v16.673a.67.67 0 0 0 .675.667h8.102a.67.67 0 0 0 .675-.667V13.969c0-1.61-1.162-2.957-2.701-3.267zm-2.7-4.069h1.35v4.002h-1.35V6.633zm-.675 5.336h2.701c1.117 0 2.026.898 2.026 2.001v.667H15.53v-.667c0-1.103.909-2.001 2.026-2.001zm4.726 15.339h-6.752v-1.334h2.701V24.64h-2.701v-8.67h6.752v11.338zm-6.752 2.668v-1.334h6.752v1.334h-6.752zm22.66-20.224H26.796a.643.643 0 0 0-.633.653v20.251c0 .361.283.653.633.653h11.393c.35 0 .633-.292.633-.653V10.405a.643.643 0 0 0-.633-.653zm-.633 20.251H27.428V11.058h10.128v18.945z"/>
      <path d="M9.284 23.018H7.596v.829h1.688v-.829zm11.815 1.658h-1.688v1.658h1.688v-1.658zm-2.11-1.658c1.629 0 2.954-1.302 2.954-2.902s-1.325-2.902-2.954-2.902c-1.629 0-2.954 1.302-2.954 2.902s1.325 2.902 2.954 2.902zm0-4.353c.815 0 1.477.651 1.477 1.451s-.662 1.451-1.477 1.451c-.814 0-1.477-.651-1.477-1.451s.662-1.451 1.477-1.451zm11.921-2.28h3.165c1.222 0 2.215-.93 2.215-2.073s-.994-2.073-2.215-2.073H30.91c-1.222 0-2.215.93-2.215 2.073s.994 2.073 2.215 2.073zm4.114-2.073c0 .49-.426.888-.949.888h-.95v-1.777h.95c.523 0 .949.399.949.888zm-4.114-.888h.95v1.777h-.95c-.523 0-.949-.399-.949-.888s.426-.888.949-.888zm0 9.594h3.165c1.222 0 2.215-1.116 2.215-2.487s-.994-2.488-2.215-2.488H30.91c-1.222 0-2.215 1.116-2.215 2.488s.994 2.487 2.215 2.487zm4.114-2.487c0 .588-.426 1.066-.949 1.066h-.95v-2.132h.95c.523 0 .949.478.949 1.066zm-4.114-1.066h.95v2.132h-.95c-.523 0-.949-.478-.949-1.066s.426-1.066.949-1.066zm0 9.357h3.165c1.222 0 2.215-1.116 2.215-2.487s-.994-2.488-2.215-2.488H30.91c-1.222 0-2.215 1.116-2.215 2.488s.994 2.487 2.215 2.487zm4.114-2.487c0 .588-.426 1.066-.949 1.066h-.95v-2.132h.95c.523 0 .949.478.949 1.066zm-4.114-1.066h.95v2.132h-.95c-.523 0-.949-.478-.949-1.066s.426-1.066.949-1.066z"/>
    </symbol>
  </defs>
</svg>
